<?xml version="1.0" standalone="no"?>
<!DOCTYPE svg PUBLIC "-//W3C//DTD SVG 20010904//EN"
 "http://www.w3.org/TR/2001/REC-SVG-20010904/DTD/svg10.dtd">
<svg version="1.0" xmlns="http://www.w3.org/2000/svg"
 width="800.000000pt" height="800.000000pt" viewBox="0 0 800.000000 800.000000"
 preserveAspectRatio="xMidYMid meet">
<metadata>
Created by potrace 1.16, written by Peter Selinger 2001-2019
</metadata>
<g transform="translate(0.000000,800.000000) scale(0.100000,-0.100000)"
fill="#000000" stroke="none">
<path d="M2250 7625 l0 -125 -250 0 -250 0 0 -125 0 -125 -875 0 -875 0 0
-375 0 -375 125 0 125 0 0 -250 0 -250 125 0 125 0 0 -125 0 -125 125 0 125 0
0 -500 0 -500 125 0 125 0 0 -250 0 -250 -250 0 -250 0 0 -125 0 -125 -125 0
-125 0 0 -250 0 -250 125 0 125 0 0 -125 0 -125 -125 0 -125 0 0 -250 0 -250
125 0 125 0 0 -125 0 -125 375 0 375 0 0 125 0 125 125 0 125 0 0 125 0 125
125 0 125 0 0 -375 0 -375 125 0 125 0 0 -500 0 -500 125 0 125 0 0 -375 0
-375 125 0 125 0 0 -125 0 -125 250 0 250 0 0 125 0 125 125 0 125 0 0 -125 0
-125 1125 0 1125 0 0 125 0 125 500 0 500 0 0 125 0 125 250 0 250 0 0 125 0
125 125 0 125 0 0 125 0 125 125 0 125 0 0 250 0 250 125 0 125 0 0 500 0 500
-125 0 -125 0 0 125 0 125 -125 0 -125 0 0 125 0 125 -375 0 -375 0 0 -250 0
-250 125 0 125 0 0 -375 0 -375 -125 0 -125 0 0 -250 0 -250 -125 0 -125 0 0
-125 0 -125 -250 0 -250 0 0 750 0 750 -125 0 -125 0 0 250 0 250 -125 0 -125
0 0 125 0 125 -125 0 -125 0 0 125 0 125 -125 0 -125 0 0 125 0 125 125 0 125
0 0 125 0 125 125 0 125 0 0 250 0 250 125 0 125 0 0 500 0 500 125 0 125 0 0
125 0 125 125 0 125 0 0 250 0 250 125 0 125 0 0 375 0 375 -750 0 -750 0 0
125 0 125 -250 0 -250 0 0 125 0 125 -1000 0 -1000 0 0 -125z m1998 -252 l3
-123 249 0 250 0 0 -125 0 -125 625 0 625 0 0 -250 0 -250 -625 0 -625 0 0
-125 0 -125 125 0 125 0 0 -125 0 -125 125 0 125 0 -2 -622 -3 -623 -122 -3
-123 -3 0 -249 0 -250 -125 0 -125 0 0 -125 0 -125 -250 0 -250 0 0 125 0 125
-250 0 -250 0 0 125 0 125 -625 0 -625 0 0 -125 0 -125 -250 0 -250 0 0 -125
0 -125 -250 0 -250 0 0 125 0 125 -125 0 -125 0 0 250 0 250 -125 0 -125 0 0
625 0 625 125 0 125 0 0 125 0 125 125 0 125 0 0 125 0 125 -625 0 -625 0 0
250 0 250 750 0 749 0 3 123 3 122 248 3 247 2 0 125 0 125 998 -2 997 -3 3
-122z m1000 -4375 l2 -247 123 -3 122 -3 3 -872 2 -873 375 0 375 0 0 125 0
125 125 0 124 0 3 123 3 122 123 3 122 3 0 249 0 250 125 0 125 0 0 125 0 125
125 0 125 0 0 -125 0 -125 125 0 126 0 -3 -122 -3 -123 -122 -3 -123 -3 0
-249 0 -250 -125 0 -125 0 0 -125 0 -125 -250 0 -249 0 -3 -122 -3 -123 -497
-3 -497 -2 -3 -123 -3 -122 -747 -3 -748 -2 0 375 0 375 -125 0 -125 0 0 -375
0 -375 -250 0 -250 0 0 750 0 750 -125 0 -125 0 -2 -747 -3 -748 -245 0 -245
0 -3 373 -2 372 -125 0 -125 0 0 500 0 500 -125 0 -125 0 0 125 0 125 250 0
250 0 0 -125 0 -125 625 0 625 0 0 125 0 125 250 0 250 0 0 125 0 125 125 0
125 0 0 125 0 125 125 0 125 0 0 125 0 125 248 -2 247 -3 3 -247z"/>
<path d="M1750 5375 l0 -125 -125 0 -125 0 0 -250 0 -250 125 0 125 0 0 -125
0 -125 250 0 250 0 0 125 0 125 125 0 125 0 0 250 0 250 -125 0 -125 0 0 125
0 125 -250 0 -250 0 0 -125z m250 -249 l0 -125 -125 -3 -125 -3 0 128 0 127
125 0 125 0 0 -124z"/>
<path d="M4000 5375 l0 -125 -125 0 -125 0 0 -250 0 -250 125 0 125 0 0 -125
0 -125 250 0 250 0 0 125 0 125 125 0 125 0 0 250 0 250 -125 0 -125 0 0 125
0 125 -250 0 -250 0 0 -125z m250 -250 l0 -125 -125 0 -125 0 0 125 0 125 125
0 125 0 0 -125z"/>
<path d="M4000 1750 l0 -500 125 0 125 0 0 500 0 500 -125 0 -125 0 0 -500z"/>
</g>
</svg>
